<svg id="Layer_1" xmlns="http://www.w3.org/2000/svg" xmlns:xlink="http://www.w3.org/1999/xlink" viewBox="0 0 30 30"><style>.st0{clip-path:url(#SVGID_2_)}.st1{clip-path:url(#SVGID_6_)}</style><defs><path id="SVGID_1_" d="M26.6 19.5c-3.7 1.5-7.7 2.3-11.3 2.3-5.4 0-10.6-1.5-14.8-3.9-.1 0-.1-.1-.2-.1-.2 0-.4.3-.1.5 3.8 3.5 9 5.6 14.8 5.6 4.1 0 8.9-1.3 12.1-3.6.6-.4.1-1-.5-.8zm1.4 3.1c1.8-1.5 2.2-4.5 1.9-4.9-.2-.2-1-.4-2-.4-1.1 0-2.4.2-3.3.9-.3.2-.2.5.1.4 1-.1 3.4-.4 3.8.1.4.5-.5 2.7-.9 3.7-.1.3.1.4.4.2z"/></defs><use xlink:href="#SVGID_1_" overflow="visible" fill="#59b9f3"/><clipPath id="SVGID_2_"><use xlink:href="#SVGID_1_" overflow="visible"/></clipPath><g class="st0"><defs><path id="SVGID_3_" d="M-535-1481.9H905v2141H-535z"/></defs><use xlink:href="#SVGID_3_" overflow="visible" fill="#59b9f3"/><clipPath id="SVGID_4_"><use xlink:href="#SVGID_3_" overflow="visible"/></clipPath></g><g><defs><path id="SVGID_5_" d="M14.9 8.8v4.4c-.6.4-1.1.6-1.7.6-.4 0-.6-.1-.8-.3s-.2-.5-.2-.9V8.8c0-.2-.1-.2-.2-.2h-.7c-.2 0-.2.1-.2.2v4.1c0 .6.1 1 .4 1.3.3.3.7.5 1.3.5.8 0 1.6-.3 2.3-.8l.1.4c0 .1 0 .1.1.2h.7c.2 0 .2-.1.2-.2V8.8c0-.2-.1-.2-.2-.2h-.7c-.4 0-.4.1-.4.2zm-6.4 5.8h.7c.2 0 .2-.1.2-.2v-4.2c0-.6-.1-1-.4-1.3s-.7-.5-1.3-.5c-.8 0-1.6.3-2.3.8-.3-.5-.8-.8-1.6-.8s-1.4.3-2.2.8l-.1-.4c0-.1 0-.1-.1-.2H.7c-.2 0-.2.1-.2.2v5.5c0 .2.1.2.2.2h.7c.2 0 .2-.1.2-.2V9.9c.6-.3 1.1-.5 1.8-.5.3 0 .6.1.7.3.1.2.2.5.2.9v3.8c0 .2.1.2.2.2h.7c.2 0 .2-.1.2-.2V10v-.2c.6-.4 1.2-.5 1.7-.5.3 0 .6.1.7.3.1.2.2.5.2.9v3.8c.2.2.3.3.5.3zm18.2-4.7c.3-.3.8-.5 1.5-.5.3 0 .7 0 1 .1h.2c.1 0 .2-.1.2-.2V9c0-.1 0-.2-.1-.2 0 0-.1-.1-.2-.1-.4-.1-.9-.2-1.3-.2-.9 0-1.6.3-2.2.8-.5.5-.8 1.3-.8 2.3s.2 1.8.7 2.3 1.2.8 2.1.8c.5 0 1-.1 1.4-.2.1 0 .2-.1.2-.1v-.5c0-.2-.1-.2-.2-.2H29c-.4.1-.7.2-1.1.2-.6 0-1.1-.2-1.4-.5s-.4-.9-.4-1.6v-.2c.2-.8.3-1.4.6-1.7zm-3.2-1.3h-.7c-.2 0-.2.1-.2.2v5.5c0 .2.1.2.2.2h.7c.2 0 .2-.1.2-.2V8.8c.1-.1 0-.2-.2-.2zm.2-2.3c-.1-.1-.3-.2-.6-.2-.2 0-.4.1-.5.2-.1.1-.2.3-.2.5s.1.4.2.5c.1.1.3.2.5.2s.4-.1.5-.2c.1-.1.2-.3.2-.5.1-.2.1-.4-.1-.5zm-3.6 7.3c-.2.1-.5.2-.9.2-.6 0-1.1-.1-1.6-.2-.1 0-.2-.1-.3-.1-.1 0-.1.1-.1.2v.3c0 .1 0 .2.1.2 0 0 .1.1.2.1.5.2 1.1.3 1.8.3s1.2-.2 1.7-.5.6-.8.6-1.3c0-.4-.1-.7-.3-1-.2-.2-.5-.5-1-.6l-.9-.4c-.4-.1-.6-.3-.7-.4-.1-.1-.2-.3-.2-.5 0-.5.4-.8 1.1-.8.4 0 .9.1 1.3.2.1 0 .2.1.3.1.1 0 .2-.1.2-.2V9c0-.1 0-.2-.1-.2 0-.1-.1-.1-.2-.1-.5-.2-1-.3-1.5-.3-.6 0-1.2.2-1.6.5s-.6.7-.6 1.2c0 .8.4 1.3 1.3 1.7l1 .4c.3.1.5.2.7.4.1.1.2.3.2.5-.1.1-.2.3-.5.5z"/></defs><use xlink:href="#SVGID_5_" overflow="visible" fill="#59b9f3"/><clipPath id="SVGID_6_"><use xlink:href="#SVGID_5_" overflow="visible"/></clipPath><g class="st1"><defs><path id="SVGID_7_" d="M-535-1481.9H905v2141H-535z"/></defs><use xlink:href="#SVGID_7_" overflow="visible" fill="#59b9f3"/><clipPath id="SVGID_8_"><use xlink:href="#SVGID_7_" overflow="visible"/></clipPath></g></g></svg>