<svg width="250" height="250" viewBox="0 0 250 250" fill="none" xmlns="http://www.w3.org/2000/svg">
<g clip-path="url(#clip0_705_2)">
<g filter="url(#filter0_d_705_2)">
<path d="M74.8284 116.32C69.2412 133.409 58.323 150.024 57.2394 152.238C54.003 158.849 46.0685 161.927 37.8083 159.776C36.908 159.541 29.5879 155.957 21.5077 151.794C5.93052 143.769 6.00001 143.796 6.00001 145.795C6.00001 148.402 7.86631 149.875 16.3852 153.989C19.3544 155.423 24.1737 157.747 27.0945 159.154C33.4771 162.228 36.2042 163.799 39.2526 166.156C43.8763 169.732 54.1681 175.679 61.3214 178.909C65.4188 180.759 70.0672 182.423 72.9034 183.054C73.9952 183.297 75.5437 183.45 76.3453 183.395C77.5523 183.311 77.9515 183.128 78.6636 182.331C79.4653 181.434 79.5148 181.236 79.404 179.417C79.2554 176.977 78.0757 174.544 74.5645 169.433C73.2009 167.448 72.0851 165.787 72.0854 165.743C72.0854 165.734 72.2766 165.724 72.5166 165.714L76.4868 169.013C85.4499 176.461 86.4336 177.39 87.3101 179.235C88.5816 181.912 88.0994 184.042 85.6684 186.478C83.7202 188.431 81.6473 189.658 78.0304 191.003C71.5717 193.404 70.1874 195.238 69.2469 202.628C68.9846 204.69 68.5319 207.146 68.2418 208.085L67.7147 209.793L70.7118 209.595C72.36 209.485 73.7596 209.351 73.8229 209.296C73.8862 209.241 73.7825 207.814 73.5924 206.125C73.0873 201.636 73.627 199.634 75.8913 197.588C77.1468 196.454 79.0253 195.406 81.4666 194.478C82.2783 194.17 85.5594 192.473 88.7579 190.707C94.0491 187.785 94.6899 187.345 95.8654 185.825C97.4767 183.741 97.7524 183.021 97.7524 180.895C97.7524 179.483 97.5804 178.915 96.7234 177.492C96.1577 176.552 95.0128 174.995 94.1781 174.032C93.3434 173.068 92.7468 172.194 92.8524 172.089C93.1787 171.763 104.407 172.589 105.976 173.055C109.06 173.971 110.271 176.533 109.387 180.268C109.137 181.322 108.821 184.641 108.684 187.643C108.547 190.645 108.347 194.429 108.239 196.051C108.063 198.694 108.104 199.099 108.632 199.937C109.455 201.244 111.469 202.334 114.02 202.855C115.214 203.099 118.825 204.172 122.044 205.24C125.263 206.307 127.996 207.066 128.116 206.926C128.237 206.786 128.687 205.838 129.118 204.819L129.901 202.966L129.242 202.712C128.88 202.572 127.235 201.912 125.588 201.246C123.941 200.579 122.262 200.034 121.858 200.034C120.255 200.034 117.157 198.813 115.984 197.719C113.925 195.798 113.985 193.623 116.221 189.221L117.592 186.522L117.47 183.735C117.357 181.152 117.25 180.746 116.006 178.174C113.273 172.904 110.37 171.07 115.233 165.807C121.282 160.127 143.589 167.401 152.437 166.569C180.854 165.604 183.865 147.083 200.447 163.087C202.651 165.023 207.232 168.803 210.626 171.489C214.019 174.174 217.443 177.127 218.236 178.051C220.131 180.259 224.397 183.791 226.733 185.085C230.164 186.986 231.048 187.119 237.741 186.739C240.987 186.554 243.728 186.317 243.834 186.212C243.939 186.106 244.075 185.08 244.136 183.93L244.247 181.839L238.261 181.078C231.563 180.225 230.436 179.848 228.35 177.762C227.653 177.065 226.612 175.603 226.036 174.512C225.095 172.729 224.01 171.622 215.287 163.545L205.584 154.56L198.498 151.066C194.601 149.145 190.574 147.29 189.55 146.945C180.726 146.18 190.615 139.833 196.586 137.472C208.167 129.38 206.877 125.387 197.208 115.333C189.143 104.442 198.897 103.891 206.244 98.2011C206.699 97.4244 204.819 91.4027 205.253 89.4298C204.376 81.9901 217.322 80.5541 217.751 79.4021C217.888 75.3089 211.066 65.3845 205.156 58.9761C200.909 54.3703 185.863 43.962 185.863 43.962C177.827 39.1532 171.653 40.0698 171.653 40.0698C123.325 39.9132 90.0041 74.1138 74.8284 116.32Z" fill="url(#paint0_linear_705_2)"/>
</g>
<g filter="url(#filter1_i_705_2)">
<path fill-rule="evenodd" clip-rule="evenodd" d="M135.833 80.7286C132.994 87.2396 124.178 86.5925 122.493 90.8462C119.493 98.4188 115.105 88.2264 116.877 82.355C123.21 67.9058 143.584 61.1827 135.833 80.7286Z" fill="white"/>
</g>
</g>
<defs>
<filter id="filter0_d_705_2" x="4" y="40" width="242.247" height="173.793" filterUnits="userSpaceOnUse" color-interpolation-filters="sRGB">
<feFlood flood-opacity="0" result="BackgroundImageFix"/>
<feColorMatrix in="SourceAlpha" type="matrix" values="0 0 0 0 0 0 0 0 0 0 0 0 0 0 0 0 0 0 127 0" result="hardAlpha"/>
<feOffset dy="2"/>
<feGaussianBlur stdDeviation="1"/>
<feComposite in2="hardAlpha" operator="out"/>
<feColorMatrix type="matrix" values="0 0 0 0 0.423529 0 0 0 0 0.458824 0 0 0 0 0.490196 0 0 0 0.37 0"/>
<feBlend mode="normal" in2="BackgroundImageFix" result="effect1_dropShadow_705_2"/>
<feBlend mode="normal" in="SourceGraphic" in2="effect1_dropShadow_705_2" result="shape"/>
</filter>
<filter id="filter1_i_705_2" x="115.969" y="68.6055" width="21.5986" height="24.9346" filterUnits="userSpaceOnUse" color-interpolation-filters="sRGB">
<feFlood flood-opacity="0" result="BackgroundImageFix"/>
<feBlend mode="normal" in="SourceGraphic" in2="BackgroundImageFix" result="shape"/>
<feColorMatrix in="SourceAlpha" type="matrix" values="0 0 0 0 0 0 0 0 0 0 0 0 0 0 0 0 0 0 127 0" result="hardAlpha"/>
<feOffset dx="-0.5"/>
<feGaussianBlur stdDeviation="1"/>
<feComposite in2="hardAlpha" operator="arithmetic" k2="-1" k3="1"/>
<feColorMatrix type="matrix" values="0 0 0 0 0.423529 0 0 0 0 0.458824 0 0 0 0 0.490196 0 0 0 1 0"/>
<feBlend mode="normal" in2="shape" result="effect1_innerShadow_705_2"/>
</filter>
<linearGradient id="paint0_linear_705_2" x1="75.0606" y1="182.602" x2="191.922" y2="54.2231" gradientUnits="userSpaceOnUse">
<stop stop-color="#008A8C"/>
<stop offset="0.128577" stop-color="#087F87"/>
<stop offset="0.229559" stop-color="#107582"/>
<stop offset="0.348324" stop-color="#1D6578"/>
<stop offset="0.46692" stop-color="#285770"/>
<stop offset="0.585893" stop-color="#33496B"/>
<stop offset="0.688818" stop-color="#3E3D66"/>
<stop offset="0.787039" stop-color="#4D366B"/>
<stop offset="0.889418" stop-color="#60306E"/>
<stop offset="1" stop-color="#732573"/>
</linearGradient>
<clipPath id="clip0_705_2">
<rect width="250" height="250" rx="20" fill="white"/>
</clipPath>
</defs>
</svg>
