<?xml version="1.0" encoding="UTF-8" standalone="no"?>
<svg
   width="250"
   height="180"
   viewBox="0 0 250 180"
   fill="none"
   version="1.1"
   id="svg72"
   sodipodi:docname="katydid_rect.svg"
   inkscape:version="1.2.1 (9c6d41e, 2022-07-14)"
   xml:space="preserve"
   xmlns:inkscape="http://www.inkscape.org/namespaces/inkscape"
   xmlns:sodipodi="http://sodipodi.sourceforge.net/DTD/sodipodi-0.dtd"
   xmlns="http://www.w3.org/2000/svg"
   xmlns:svg="http://www.w3.org/2000/svg"><sodipodi:namedview
     id="namedview74"
     pagecolor="#ffffff"
     bordercolor="#111111"
     borderopacity="1"
     inkscape:showpageshadow="0"
     inkscape:pageopacity="0"
     inkscape:pagecheckerboard="1"
     inkscape:deskcolor="#d1d1d1"
     showgrid="false"
     inkscape:zoom="0.944"
     inkscape:cx="348.51695"
     inkscape:cy="125.52966"
     inkscape:window-width="2056"
     inkscape:window-height="1257"
     inkscape:window-x="0"
     inkscape:window-y="44"
     inkscape:window-maximized="1"
     inkscape:current-layer="svg72" /><g
     clip-path="url(#clip0_705_2)"
     id="g10"
     transform="translate(0,-34)"><g
       filter="url(#filter0_d_705_2)"
       id="g4"><path
         d="m 74.8284,116.32 c -5.5872,17.089 -16.5054,33.704 -17.589,35.918 -3.2364,6.611 -11.1709,9.689 -19.4311,7.538 -0.9003,-0.235 -8.2204,-3.819 -16.3006,-7.982 -15.57718,-8.025 -15.50769,-7.998 -15.50769,-5.999 0,2.607 1.8663,4.08 10.38519,8.194 2.9692,1.434 7.7885,3.758 10.7093,5.165 6.3826,3.074 9.1097,4.645 12.1581,7.002 4.6237,3.576 14.9155,9.523 22.0688,12.753 4.0974,1.85 8.7458,3.514 11.582,4.145 1.0918,0.243 2.6403,0.396 3.4419,0.341 1.207,-0.084 1.6062,-0.267 2.3183,-1.064 0.8017,-0.897 0.8512,-1.095 0.7404,-2.914 -0.1486,-2.44 -1.3283,-4.873 -4.8395,-9.984 -1.3636,-1.985 -2.4794,-3.646 -2.4791,-3.69 0,-0.009 0.1912,-0.019 0.4312,-0.029 l 3.9702,3.299 c 8.9631,7.448 9.9468,8.377 10.8233,10.222 1.2715,2.677 0.7893,4.807 -1.6417,7.243 -1.9482,1.953 -4.0211,3.18 -7.638,4.525 -6.4587,2.401 -7.843,4.235 -8.7835,11.625 -0.2623,2.062 -0.715,4.518 -1.0051,5.457 l -0.5271,1.708 2.9971,-0.198 c 1.6482,-0.11 3.0478,-0.244 3.1111,-0.299 0.0633,-0.055 -0.0404,-1.482 -0.2305,-3.171 -0.5051,-4.489 0.0346,-6.491 2.2989,-8.537 1.2555,-1.134 3.134,-2.182 5.5753,-3.11 0.8117,-0.308 4.0928,-2.005 7.2913,-3.771 5.2912,-2.922 5.932,-3.362 7.1075,-4.882 1.6113,-2.084 1.887,-2.804 1.887,-4.93 0,-1.412 -0.172,-1.98 -1.029,-3.403 -0.5657,-0.94 -1.7106,-2.497 -2.5453,-3.46 -0.8347,-0.964 -1.4313,-1.838 -1.3257,-1.943 0.3263,-0.326 11.5546,0.5 13.1236,0.966 3.084,0.916 4.295,3.478 3.411,7.213 -0.25,1.054 -0.566,4.373 -0.703,7.375 -0.137,3.002 -0.337,6.786 -0.445,8.408 -0.176,2.643 -0.135,3.048 0.393,3.886 0.823,1.307 2.837,2.397 5.388,2.918 1.194,0.244 4.805,1.317 8.024,2.385 3.219,1.067 5.952,1.826 6.072,1.686 0.121,-0.14 0.571,-1.088 1.002,-2.107 l 0.783,-1.853 -0.659,-0.254 c -0.362,-0.14 -2.007,-0.8 -3.654,-1.466 -1.647,-0.667 -3.326,-1.212 -3.73,-1.212 -1.603,0 -4.701,-1.221 -5.874,-2.315 -2.059,-1.921 -1.999,-4.096 0.237,-8.498 l 1.371,-2.699 -0.122,-2.787 c -0.113,-2.583 -0.22,-2.989 -1.464,-5.561 -2.733,-5.27 -5.636,-7.104 -0.773,-12.367 6.049,-5.68 28.356,1.594 37.204,0.762 28.417,-0.965 31.428,-19.486 48.01,-3.482 2.204,1.936 6.785,5.716 10.179,8.402 3.393,2.685 6.817,5.638 7.61,6.562 1.895,2.208 6.161,5.74 8.497,7.034 3.431,1.901 4.315,2.034 11.008,1.654 3.246,-0.185 5.987,-0.422 6.093,-0.527 0.105,-0.106 0.241,-1.132 0.302,-2.282 l 0.111,-2.091 -5.986,-0.761 c -6.698,-0.853 -7.825,-1.23 -9.911,-3.316 -0.697,-0.697 -1.738,-2.159 -2.314,-3.25 -0.941,-1.783 -2.026,-2.89 -10.749,-10.967 l -9.703,-8.985 -7.086,-3.494 c -3.897,-1.921 -7.924,-3.776 -8.948,-4.121 -8.824,-0.765 1.065,-7.112 7.036,-9.473 11.581,-8.092 10.291,-12.085 0.622,-22.139 -8.065,-10.891 1.689,-11.442 9.036,-17.1319 0.455,-0.7767 -1.425,-6.7984 -0.991,-8.7713 -0.877,-7.4397 12.069,-8.8757 12.498,-10.0277 0.137,-4.0932 -6.685,-14.0176 -12.595,-20.426 -4.247,-4.6058 -19.293,-15.0141 -19.293,-15.0141 -8.036,-4.8088 -14.21,-3.8922 -14.21,-3.8922 -48.328,-0.1566 -81.6489,34.044 -96.8246,76.2502 z"
         fill="url(#paint0_linear_705_2)"
         id="path2"
         style="fill:url(#paint0_linear_705_2)" /></g><g
       filter="url(#filter1_i_705_2)"
       id="g8"><path
         fill-rule="evenodd"
         clip-rule="evenodd"
         d="m 135.833,80.7286 c -2.839,6.511 -11.655,5.8639 -13.34,10.1176 -3,7.5726 -7.388,-2.6198 -5.616,-8.4912 6.333,-14.4492 26.707,-21.1723 18.956,-1.6264 z"
         fill="#ffffff"
         id="path6" /></g></g><defs
     id="defs70"><filter
       id="filter0_d_705_2"
       x="4"
       y="40"
       width="242.24699"
       height="173.793"
       filterUnits="userSpaceOnUse"
       color-interpolation-filters="sRGB"><feFlood
         flood-opacity="0"
         result="BackgroundImageFix"
         id="feFlood12" /><feColorMatrix
         in="SourceAlpha"
         type="matrix"
         values="0 0 0 0 0 0 0 0 0 0 0 0 0 0 0 0 0 0 127 0"
         result="hardAlpha"
         id="feColorMatrix14" /><feOffset
         dy="2"
         id="feOffset16" /><feGaussianBlur
         stdDeviation="1"
         id="feGaussianBlur18" /><feComposite
         in2="hardAlpha"
         operator="out"
         id="feComposite20" /><feColorMatrix
         type="matrix"
         values="0 0 0 0 0.423529 0 0 0 0 0.458824 0 0 0 0 0.490196 0 0 0 0.37 0"
         id="feColorMatrix22" /><feBlend
         mode="normal"
         in2="BackgroundImageFix"
         result="effect1_dropShadow_705_2"
         id="feBlend24" /><feBlend
         mode="normal"
         in="SourceGraphic"
         in2="effect1_dropShadow_705_2"
         result="shape"
         id="feBlend26" /></filter><filter
       id="filter1_i_705_2"
       x="115.969"
       y="68.605499"
       width="21.5986"
       height="24.934601"
       filterUnits="userSpaceOnUse"
       color-interpolation-filters="sRGB"><feFlood
         flood-opacity="0"
         result="BackgroundImageFix"
         id="feFlood29" /><feBlend
         mode="normal"
         in="SourceGraphic"
         in2="BackgroundImageFix"
         result="shape"
         id="feBlend31" /><feColorMatrix
         in="SourceAlpha"
         type="matrix"
         values="0 0 0 0 0 0 0 0 0 0 0 0 0 0 0 0 0 0 127 0"
         result="hardAlpha"
         id="feColorMatrix33" /><feOffset
         dx="-0.5"
         id="feOffset35" /><feGaussianBlur
         stdDeviation="1"
         id="feGaussianBlur37" /><feComposite
         in2="hardAlpha"
         operator="arithmetic"
         k2="-1"
         k3="1"
         id="feComposite39"
         k1="0"
         k4="0" /><feColorMatrix
         type="matrix"
         values="0 0 0 0 0.423529 0 0 0 0 0.458824 0 0 0 0 0.490196 0 0 0 1 0"
         id="feColorMatrix41" /><feBlend
         mode="normal"
         in2="shape"
         result="effect1_innerShadow_705_2"
         id="feBlend43" /></filter><linearGradient
       id="paint0_linear_705_2"
       x1="75.0606"
       y1="182.60201"
       x2="191.922"
       y2="54.223099"
       gradientUnits="userSpaceOnUse"><stop
         stop-color="#008A8C"
         id="stop46" /><stop
         offset="0.128577"
         stop-color="#087F87"
         id="stop48" /><stop
         offset="0.229559"
         stop-color="#107582"
         id="stop50" /><stop
         offset="0.348324"
         stop-color="#1D6578"
         id="stop52" /><stop
         offset="0.46692"
         stop-color="#285770"
         id="stop54" /><stop
         offset="0.585893"
         stop-color="#33496B"
         id="stop56" /><stop
         offset="0.688818"
         stop-color="#3E3D66"
         id="stop58" /><stop
         offset="0.787039"
         stop-color="#4D366B"
         id="stop60" /><stop
         offset="0.889418"
         stop-color="#60306E"
         id="stop62" /><stop
         offset="1"
         stop-color="#732573"
         id="stop64" /></linearGradient><clipPath
       id="clip0_705_2"><rect
         width="250"
         height="250"
         rx="20"
         fill="#ffffff"
         id="rect67"
         x="0"
         y="0" /></clipPath></defs></svg>
