<?xml version="1.0" encoding="UTF-8" standalone="no"?>
<svg
   xmlns:dc="http://purl.org/dc/elements/1.1/"
   xmlns:cc="http://creativecommons.org/ns#"
   xmlns:rdf="http://www.w3.org/1999/02/22-rdf-syntax-ns#"
   xmlns:svg="http://www.w3.org/2000/svg"
   xmlns="http://www.w3.org/2000/svg"
   xmlns:sodipodi="http://sodipodi.sourceforge.net/DTD/sodipodi-0.dtd"
   xmlns:inkscape="http://www.inkscape.org/namespaces/inkscape"
   width="346"
   height="346"
   viewBox="0 0 346 346"
   fill="none"
   version="1.1"
   id="svg75"
   sodipodi:docname="katydid.svg"
   inkscape:version="1.0.2 (e86c8708, 2021-01-15)">
  <metadata
     id="metadata79">
    <rdf:RDF>
      <cc:Work
         rdf:about="">
        <dc:format>image/svg+xml</dc:format>
        <dc:type
           rdf:resource="http://purl.org/dc/dcmitype/StillImage" />
        <dc:title></dc:title>
      </cc:Work>
    </rdf:RDF>
  </metadata>
  <sodipodi:namedview
     pagecolor="#ffffff"
     bordercolor="#666666"
     borderopacity="1"
     objecttolerance="10"
     gridtolerance="10"
     guidetolerance="10"
     inkscape:pageopacity="0"
     inkscape:pageshadow="2"
     inkscape:window-width="1920"
     inkscape:window-height="1027"
     id="namedview77"
     showgrid="false"
     inkscape:zoom="2.3352601"
     inkscape:cx="173"
     inkscape:cy="169.88614"
     inkscape:window-x="1680"
     inkscape:window-y="25"
     inkscape:window-maximized="1"
     inkscape:current-layer="svg75" />
  <g
     id="g85"
     transform="translate(0,54.525139)">
    <g
       filter="url(#filter0_d_382_47)"
       id="g12">
      <path
         d="M 100.687,104.675 C 92.7345,127.98 77.16,150.626 75.6154,153.644 71.0023,162.657 59.6654,166.84 47.852,163.886 46.5644,163.564 36.0922,158.658 24.532,152.961 2.24601,141.979 2.3454,142.016 2.34953,144.744 c 0.0054,3.556 2.67654,5.569 14.86387,11.201 4.2476,1.963 11.1423,5.144 15.3207,7.07 9.131,4.208 13.033,6.358 17.3959,9.58 6.6175,4.889 21.3431,13.024 31.5763,17.447 5.8615,2.534 12.5104,4.813 16.5663,5.68 1.5614,0.334 3.7754,0.547 4.9214,0.473 1.725,-0.111 2.296,-0.36 3.312,-1.446 1.144,-1.222 1.215,-1.492 1.052,-3.975 -0.217,-3.329 -1.909,-6.652 -6.939,-13.632 -1.9534,-2.711 -3.5519,-4.98 -3.5516,-5.04 1e-4,-0.012 0.2734,-0.025 0.6164,-0.039 l 5.6822,4.51 c 12.83,10.181 14.238,11.45 15.495,13.97 1.823,3.656 1.138,6.56 -2.332,9.879 -2.781,2.661 -5.742,4.33 -10.91,6.157 -9.2287,3.263 -11.2039,5.761 -12.5332,15.843 -0.3708,2.812 -1.0128,6.162 -1.4256,7.443 l -0.75,2.329 4.2842,-0.264 c 2.356,-0.146 4.3567,-0.326 4.4471,-0.401 0.0904,-0.075 -0.0609,-2.022 -0.336,-4.327 -0.7314,-6.125 0.0359,-8.856 3.2685,-11.643 1.793,-1.545 4.476,-2.97 7.964,-4.231 1.16,-0.419 5.847,-2.728 10.416,-5.13 7.559,-3.975 8.474,-4.574 10.151,-6.646 2.299,-2.839 2.692,-3.82 2.688,-6.721 -0.003,-1.927 -0.25,-2.702 -1.478,-4.646 -0.811,-1.283 -2.451,-3.41 -3.646,-4.727 -1.196,-1.316 -2.05,-2.509 -1.9,-2.653 0.466,-0.445 16.52,0.707 18.764,1.346 4.411,1.257 6.148,4.755 4.891,9.848 -0.355,1.439 -0.8,5.967 -0.989,10.062 -0.19,4.096 -0.468,9.258 -0.619,11.471 -0.246,3.605 -0.187,4.158 0.569,5.303 1.18,1.785 4.061,3.277 7.709,3.993 1.708,0.335 6.872,1.807 11.476,3.271 4.604,1.463 8.513,2.504 8.685,2.313 0.173,-0.19 0.815,-1.483 1.428,-2.873 l 1.115,-2.526 -0.942,-0.348 c -0.518,-0.192 -2.871,-1.096 -5.227,-2.008 -2.356,-0.913 -4.757,-1.661 -5.336,-1.661 -2.29,-0.004 -6.722,-1.676 -8.401,-3.171 -2.948,-2.626 -2.866,-5.593 0.32,-11.595 l 1.955,-3.68 -0.18,-3.803 c -0.167,-3.524 -0.321,-4.078 -2.104,-7.59 -3.919,-7.196 -8.073,-9.704 -1.13,-16.875 8.635,-7.737 40.54,2.236 53.188,1.12 40.623,-1.256 44.889,-26.52 68.628,-4.647 3.156,2.646 9.712,7.813 14.569,11.484 4.857,3.671 9.759,7.708 10.894,8.97 2.713,3.017 8.819,7.845 12.162,9.616 4.909,2.601 6.173,2.784 15.741,2.279 4.639,-0.244 8.558,-0.562 8.708,-0.706 0.151,-0.143 0.343,-1.543 0.428,-3.112 l 0.154,-2.853 -8.56,-1.051 c -9.576,-1.177 -11.188,-1.695 -14.175,-4.545 -0.997,-0.952 -2.489,-2.95 -3.314,-4.44 -1.349,-2.434 -2.903,-3.947 -15.39,-14.986 l -13.89,-12.281 -10.137,-4.781 c -5.576,-2.63 -11.336,-5.169 -12.801,-5.642 -12.617,-1.064 1.507,-9.701 10.039,-12.91 16.54,-11.016 14.687,-16.466 0.843,-30.204 -11.552,-14.8774 2.391,-15.6088 12.882,-23.3563 0.649,-1.0587 -2.05,-9.2787 -1.433,-11.9696 -1.27,-10.1526 17.235,-12.084 17.846,-13.6549 0.187,-5.5845 -9.586,-19.1398 -18.049,-27.8961 C 280.804,20.4227 259.274,6.18938 259.274,6.18938 247.776,-0.388968 238.95,0.848437 238.95,0.848437 169.859,0.530768 122.295,47.1223 100.687,104.675 Z"
         fill="url(#paint0_linear_382_47)"
         id="path10"
         style="fill:url(#paint0_linear_382_47)" />
    </g>
    <g
       filter="url(#filter1_i_382_47)"
       id="g16">
      <path
         fill-rule="evenodd"
         clip-rule="evenodd"
         d="m 187.827,56.2474 c -4.044,8.8774 -16.65,7.9757 -19.05,13.7757 -4.273,10.3256 -10.567,-3.5904 -8.045,-11.5974 9.022,-19.7008 38.137,-28.8299 27.095,-2.1783 z"
         fill="#ffffff"
         id="path14" />
    </g>
  </g>
  <defs
     id="defs73">
    <filter
       id="filter0_d_382_47"
       x="0.349365"
       y="0.75585902"
       width="344.67599"
       height="235.438"
       filterUnits="userSpaceOnUse"
       color-interpolation-filters="sRGB">
      <feFlood
         flood-opacity="0"
         result="BackgroundImageFix"
         id="feFlood18" />
      <feColorMatrix
         in="SourceAlpha"
         type="matrix"
         values="0 0 0 0 0 0 0 0 0 0 0 0 0 0 0 0 0 0 127 0"
         result="hardAlpha"
         id="feColorMatrix20" />
      <feOffset
         dy="2"
         id="feOffset22" />
      <feGaussianBlur
         stdDeviation="1"
         id="feGaussianBlur24" />
      <feComposite
         in2="hardAlpha"
         operator="out"
         id="feComposite26" />
      <feColorMatrix
         type="matrix"
         values="0 0 0 0 0.423529 0 0 0 0 0.458824 0 0 0 0 0.490196 0 0 0 0.37 0"
         id="feColorMatrix28" />
      <feBlend
         mode="normal"
         in2="BackgroundImageFix"
         result="effect1_dropShadow_382_47"
         id="feBlend30" />
      <feBlend
         mode="normal"
         in="SourceGraphic"
         in2="effect1_dropShadow_382_47"
         result="shape"
         id="feBlend32" />
    </filter>
    <filter
       id="filter1_i_382_47"
       x="159.65401"
       y="39.701199"
       width="30.637899"
       height="33.992199"
       filterUnits="userSpaceOnUse"
       color-interpolation-filters="sRGB">
      <feFlood
         flood-opacity="0"
         result="BackgroundImageFix"
         id="feFlood35" />
      <feBlend
         mode="normal"
         in="SourceGraphic"
         in2="BackgroundImageFix"
         result="shape"
         id="feBlend37" />
      <feColorMatrix
         in="SourceAlpha"
         type="matrix"
         values="0 0 0 0 0 0 0 0 0 0 0 0 0 0 0 0 0 0 127 0"
         result="hardAlpha"
         id="feColorMatrix39" />
      <feOffset
         dx="-0.5"
         id="feOffset41" />
      <feGaussianBlur
         stdDeviation="1"
         id="feGaussianBlur43" />
      <feComposite
         in2="hardAlpha"
         operator="arithmetic"
         k2="-1"
         k3="1"
         id="feComposite45"
         k1="0"
         k4="0" />
      <feColorMatrix
         type="matrix"
         values="0 0 0 0 0.423529 0 0 0 0 0.458824 0 0 0 0 0.490196 0 0 0 1 0"
         id="feColorMatrix47" />
      <feBlend
         mode="normal"
         in2="shape"
         result="effect1_innerShadow_382_47"
         id="feBlend49" />
    </filter>
    <linearGradient
       id="paint0_linear_382_47"
       x1="101.156"
       y1="195.11099"
       x2="259.53299"
       y2="12.8818"
       gradientUnits="userSpaceOnUse">
      <stop
         stop-color="#008A8C"
         id="stop52" />
      <stop
         offset="0.128577"
         stop-color="#087F87"
         id="stop54" />
      <stop
         offset="0.229559"
         stop-color="#107582"
         id="stop56" />
      <stop
         offset="0.348324"
         stop-color="#1D6578"
         id="stop58" />
      <stop
         offset="0.46692"
         stop-color="#285770"
         id="stop60" />
      <stop
         offset="0.585893"
         stop-color="#33496B"
         id="stop62" />
      <stop
         offset="0.688818"
         stop-color="#3E3D66"
         id="stop64" />
      <stop
         offset="0.787039"
         stop-color="#4D366B"
         id="stop66" />
      <stop
         offset="0.889418"
         stop-color="#60306E"
         id="stop68" />
      <stop
         offset="1"
         stop-color="#732573"
         id="stop70" />
    </linearGradient>
  </defs>
</svg>
