<svg id="logosandtypes_com" data-name="logosandtypes com" xmlns="http://www.w3.org/2000/svg" viewBox="0 0 150 150"><defs><style>.cls-1{fill:none;}.cls-2{fill:#f00044;}.cls-3{fill:#08fff9;}</style></defs><path class="cls-1" d="M0,.2H150v150H0Z" transform="translate(0 -0.2)"/><path class="cls-2" d="M59,76.61c-22.84-.19-24.47,23.5-9.13,32.73-9-14,4.79-31.32,20.61-26.22V63.42a55.81,55.81,0,0,0-7.1-.42l1.23,14.49A19.2,19.2,0,0,0,59,76.61Z" transform="translate(0 -0.2)"/><path class="cls-2" d="M102,17.52H95.54c1.47,7.37,6.83,13.78,12.6,18.14A30.37,30.37,0,0,1,102,17.52Z" transform="translate(0 -0.2)"/><path class="cls-2" d="M132,47.51a30.79,30.79,0,0,1-5.63-.54L96.22,50.84,64.65,130.66c-18.36-4-20.56-1.15-28.45-7.32,13.63,16.63,39.92,17.92,55.1,2.57A36.42,36.42,0,0,0,102.22,100l-.37-43.54A49.39,49.39,0,0,0,132,66.72" transform="translate(0 -0.2)"/><path class="cls-3" d="M39.48,74.58A34.53,34.53,0,0,1,64.65,64.23V57.79C26.83,52.53,6,99.48,36.18,123.37,24,109.41,26.09,87.39,39.48,74.58Z" transform="translate(0 -0.2)"/><path class="cls-3" d="M126.33,48.19V41.73a29.86,29.86,0,0,1-18.16-6.07C112.55,41.44,119,46.77,126.33,48.19Z" transform="translate(0 -0.2)"/><path class="cls-3" d="M57.55,118.1c4.36,2.18,27.27,1,25.92-18.23l1-29.13L84.08,19l12.68-1.44a30.8,30.8,0,0,1-.59-5.63H76.89c0,18.88,0,64,0,82.32,0,13.81-15.4,22.06-26.95,15.11A50.74,50.74,0,0,0,57.55,118.1Z" transform="translate(0 -0.2)"/><path d="M64.65,130.66c17.55-2.29,31.93-18.49,31.67-36.28l-.1-43.54a49.39,49.39,0,0,0,30.11,10.25V47a29.88,29.88,0,0,1-18.16-11.31A30,30,0,0,1,96.79,17.52h-14c0,18.87,0,64,0,82.32-.3,17.86-23.26,24-32.83,9.48C32,98.08,44.28,71.41,64.65,77.47V63c-31.05.1-48.54,36.45-28.45,60.34a37.7,37.7,0,0,0,28.45,7.34Z" transform="translate(0 -0.2)"/></svg>